<mxfile host="app.diagrams.net" modified="2020-12-06T07:46:41.974Z" agent="5.0 (Macintosh; Intel Mac OS X 10_15_5) AppleWebKit/537.36 (KHTML, like Gecko) Chrome/87.0.4280.67 Safari/537.36" etag="qCAWGjGpHcD5vnseqt1E" version="13.10.8" type="github">
  <diagram id="hHQP5PMTyWBvCoA75Q92" name="Page-1">
    <mxGraphModel dx="896" dy="623" grid="1" gridSize="10" guides="1" tooltips="1" connect="1" arrows="1" fold="1" page="1" pageScale="1" pageWidth="827" pageHeight="1169" math="0" shadow="0">
      <root>
        <mxCell id="0" />
        <mxCell id="1" parent="0" />
        <mxCell id="zt_XHgxG_gsh5UXB637m-33" value="" style="group" vertex="1" connectable="0" parent="1">
          <mxGeometry x="80" y="40" width="180" height="360" as="geometry" />
        </mxCell>
        <mxCell id="zt_XHgxG_gsh5UXB637m-38" value="" style="group" vertex="1" connectable="0" parent="zt_XHgxG_gsh5UXB637m-33">
          <mxGeometry width="180" height="360" as="geometry" />
        </mxCell>
        <mxCell id="zt_XHgxG_gsh5UXB637m-37" value="" style="group" vertex="1" connectable="0" parent="zt_XHgxG_gsh5UXB637m-38">
          <mxGeometry width="180" height="360" as="geometry" />
        </mxCell>
        <mxCell id="zt_XHgxG_gsh5UXB637m-36" value="" style="group" vertex="1" connectable="0" parent="zt_XHgxG_gsh5UXB637m-37">
          <mxGeometry width="180" height="360" as="geometry" />
        </mxCell>
        <mxCell id="zt_XHgxG_gsh5UXB637m-32" value="" style="group" vertex="1" connectable="0" parent="zt_XHgxG_gsh5UXB637m-36">
          <mxGeometry width="180" height="360" as="geometry" />
        </mxCell>
        <mxCell id="zt_XHgxG_gsh5UXB637m-35" value="" style="group" vertex="1" connectable="0" parent="zt_XHgxG_gsh5UXB637m-32">
          <mxGeometry width="180" height="360" as="geometry" />
        </mxCell>
        <mxCell id="zt_XHgxG_gsh5UXB637m-1" value="gov_theme" style="shape=table;startSize=30;container=1;collapsible=1;childLayout=tableLayout;fixedRows=1;rowLines=0;fontStyle=1;align=center;resizeLast=1;" vertex="1" parent="zt_XHgxG_gsh5UXB637m-35">
          <mxGeometry y="50" width="180" height="290" as="geometry">
            <mxRectangle y="50" width="100" height="30" as="alternateBounds" />
          </mxGeometry>
        </mxCell>
        <mxCell id="zt_XHgxG_gsh5UXB637m-2" value="" style="shape=partialRectangle;collapsible=0;dropTarget=0;pointerEvents=0;fillColor=none;top=0;left=0;bottom=1;right=0;points=[[0,0.5],[1,0.5]];portConstraint=eastwest;" vertex="1" parent="zt_XHgxG_gsh5UXB637m-1">
          <mxGeometry y="30" width="180" height="30" as="geometry" />
        </mxCell>
        <mxCell id="zt_XHgxG_gsh5UXB637m-3" value="PK" style="shape=partialRectangle;connectable=0;fillColor=none;top=0;left=0;bottom=0;right=0;fontStyle=1;overflow=hidden;" vertex="1" parent="zt_XHgxG_gsh5UXB637m-2">
          <mxGeometry width="30" height="30" as="geometry" />
        </mxCell>
        <mxCell id="zt_XHgxG_gsh5UXB637m-4" value="UniqueID" style="shape=partialRectangle;connectable=0;fillColor=none;top=0;left=0;bottom=0;right=0;align=left;spacingLeft=6;fontStyle=5;overflow=hidden;" vertex="1" parent="zt_XHgxG_gsh5UXB637m-2">
          <mxGeometry x="30" width="150" height="30" as="geometry" />
        </mxCell>
        <mxCell id="zt_XHgxG_gsh5UXB637m-5" value="" style="shape=partialRectangle;collapsible=0;dropTarget=0;pointerEvents=0;fillColor=none;top=0;left=0;bottom=0;right=0;points=[[0,0.5],[1,0.5]];portConstraint=eastwest;" vertex="1" parent="zt_XHgxG_gsh5UXB637m-1">
          <mxGeometry y="60" width="180" height="30" as="geometry" />
        </mxCell>
        <mxCell id="zt_XHgxG_gsh5UXB637m-6" value="" style="shape=partialRectangle;connectable=0;fillColor=none;top=0;left=0;bottom=0;right=0;editable=1;overflow=hidden;" vertex="1" parent="zt_XHgxG_gsh5UXB637m-5">
          <mxGeometry width="30" height="30" as="geometry" />
        </mxCell>
        <mxCell id="zt_XHgxG_gsh5UXB637m-7" value="name" style="shape=partialRectangle;connectable=0;fillColor=none;top=0;left=0;bottom=0;right=0;align=left;spacingLeft=6;overflow=hidden;" vertex="1" parent="zt_XHgxG_gsh5UXB637m-5">
          <mxGeometry x="30" width="150" height="30" as="geometry" />
        </mxCell>
        <mxCell id="zt_XHgxG_gsh5UXB637m-8" value="" style="shape=partialRectangle;collapsible=0;dropTarget=0;pointerEvents=0;fillColor=none;top=0;left=0;bottom=0;right=0;points=[[0,0.5],[1,0.5]];portConstraint=eastwest;" vertex="1" parent="zt_XHgxG_gsh5UXB637m-1">
          <mxGeometry y="90" width="180" height="30" as="geometry" />
        </mxCell>
        <mxCell id="zt_XHgxG_gsh5UXB637m-9" value="" style="shape=partialRectangle;connectable=0;fillColor=none;top=0;left=0;bottom=0;right=0;editable=1;overflow=hidden;" vertex="1" parent="zt_XHgxG_gsh5UXB637m-8">
          <mxGeometry width="30" height="30" as="geometry" />
        </mxCell>
        <mxCell id="zt_XHgxG_gsh5UXB637m-10" value="description" style="shape=partialRectangle;connectable=0;fillColor=none;top=0;left=0;bottom=0;right=0;align=left;spacingLeft=6;overflow=hidden;" vertex="1" parent="zt_XHgxG_gsh5UXB637m-8">
          <mxGeometry x="30" width="150" height="30" as="geometry" />
        </mxCell>
        <mxCell id="zt_XHgxG_gsh5UXB637m-11" value="" style="shape=partialRectangle;collapsible=0;dropTarget=0;pointerEvents=0;fillColor=none;top=0;left=0;bottom=0;right=0;points=[[0,0.5],[1,0.5]];portConstraint=eastwest;" vertex="1" parent="zt_XHgxG_gsh5UXB637m-1">
          <mxGeometry y="120" width="180" height="30" as="geometry" />
        </mxCell>
        <mxCell id="zt_XHgxG_gsh5UXB637m-12" value="" style="shape=partialRectangle;connectable=0;fillColor=none;top=0;left=0;bottom=0;right=0;editable=1;overflow=hidden;" vertex="1" parent="zt_XHgxG_gsh5UXB637m-11">
          <mxGeometry width="30" height="30" as="geometry" />
        </mxCell>
        <mxCell id="zt_XHgxG_gsh5UXB637m-13" value="version" style="shape=partialRectangle;connectable=0;fillColor=none;top=0;left=0;bottom=0;right=0;align=left;spacingLeft=6;overflow=hidden;" vertex="1" parent="zt_XHgxG_gsh5UXB637m-11">
          <mxGeometry x="30" width="150" height="30" as="geometry" />
        </mxCell>
        <mxCell id="zt_XHgxG_gsh5UXB637m-41" value="" style="shape=partialRectangle;collapsible=0;dropTarget=0;pointerEvents=0;fillColor=none;top=0;left=0;bottom=0;right=0;points=[[0,0.5],[1,0.5]];portConstraint=eastwest;" vertex="1" parent="zt_XHgxG_gsh5UXB637m-1">
          <mxGeometry y="150" width="180" height="30" as="geometry" />
        </mxCell>
        <mxCell id="zt_XHgxG_gsh5UXB637m-42" value="" style="shape=partialRectangle;connectable=0;fillColor=none;top=0;left=0;bottom=0;right=0;editable=1;overflow=hidden;" vertex="1" parent="zt_XHgxG_gsh5UXB637m-41">
          <mxGeometry width="30" height="30" as="geometry" />
        </mxCell>
        <mxCell id="zt_XHgxG_gsh5UXB637m-43" value="pkg_name(npm包名)" style="shape=partialRectangle;connectable=0;fillColor=none;top=0;left=0;bottom=0;right=0;align=left;spacingLeft=6;overflow=hidden;" vertex="1" parent="zt_XHgxG_gsh5UXB637m-41">
          <mxGeometry x="30" width="150" height="30" as="geometry" />
        </mxCell>
        <mxCell id="zt_XHgxG_gsh5UXB637m-44" value="" style="shape=partialRectangle;collapsible=0;dropTarget=0;pointerEvents=0;fillColor=none;top=0;left=0;bottom=0;right=0;points=[[0,0.5],[1,0.5]];portConstraint=eastwest;" vertex="1" parent="zt_XHgxG_gsh5UXB637m-1">
          <mxGeometry y="180" width="180" height="30" as="geometry" />
        </mxCell>
        <mxCell id="zt_XHgxG_gsh5UXB637m-45" value="" style="shape=partialRectangle;connectable=0;fillColor=none;top=0;left=0;bottom=0;right=0;editable=1;overflow=hidden;" vertex="1" parent="zt_XHgxG_gsh5UXB637m-44">
          <mxGeometry width="30" height="30" as="geometry" />
        </mxCell>
        <mxCell id="zt_XHgxG_gsh5UXB637m-46" value="gmt_created" style="shape=partialRectangle;connectable=0;fillColor=none;top=0;left=0;bottom=0;right=0;align=left;spacingLeft=6;overflow=hidden;" vertex="1" parent="zt_XHgxG_gsh5UXB637m-44">
          <mxGeometry x="30" width="150" height="30" as="geometry" />
        </mxCell>
        <mxCell id="zt_XHgxG_gsh5UXB637m-47" value="" style="shape=partialRectangle;collapsible=0;dropTarget=0;pointerEvents=0;fillColor=none;top=0;left=0;bottom=0;right=0;points=[[0,0.5],[1,0.5]];portConstraint=eastwest;" vertex="1" parent="zt_XHgxG_gsh5UXB637m-1">
          <mxGeometry y="210" width="180" height="30" as="geometry" />
        </mxCell>
        <mxCell id="zt_XHgxG_gsh5UXB637m-48" value="" style="shape=partialRectangle;connectable=0;fillColor=none;top=0;left=0;bottom=0;right=0;editable=1;overflow=hidden;" vertex="1" parent="zt_XHgxG_gsh5UXB637m-47">
          <mxGeometry width="30" height="30" as="geometry" />
        </mxCell>
        <mxCell id="zt_XHgxG_gsh5UXB637m-49" value="gmt_modified" style="shape=partialRectangle;connectable=0;fillColor=none;top=0;left=0;bottom=0;right=0;align=left;spacingLeft=6;overflow=hidden;" vertex="1" parent="zt_XHgxG_gsh5UXB637m-47">
          <mxGeometry x="30" width="150" height="30" as="geometry" />
        </mxCell>
        <mxCell id="zt_XHgxG_gsh5UXB637m-51" value="" style="shape=partialRectangle;collapsible=0;dropTarget=0;pointerEvents=0;fillColor=none;top=0;left=0;bottom=0;right=0;points=[[0,0.5],[1,0.5]];portConstraint=eastwest;" vertex="1" parent="zt_XHgxG_gsh5UXB637m-1">
          <mxGeometry y="240" width="180" height="30" as="geometry" />
        </mxCell>
        <mxCell id="zt_XHgxG_gsh5UXB637m-52" value="" style="shape=partialRectangle;connectable=0;fillColor=none;top=0;left=0;bottom=0;right=0;editable=1;overflow=hidden;" vertex="1" parent="zt_XHgxG_gsh5UXB637m-51">
          <mxGeometry width="30" height="30" as="geometry" />
        </mxCell>
        <mxCell id="zt_XHgxG_gsh5UXB637m-53" value="status（状态）" style="shape=partialRectangle;connectable=0;fillColor=none;top=0;left=0;bottom=0;right=0;align=left;spacingLeft=6;overflow=hidden;" vertex="1" parent="zt_XHgxG_gsh5UXB637m-51">
          <mxGeometry x="30" width="150" height="30" as="geometry" />
        </mxCell>
      </root>
    </mxGraphModel>
  </diagram>
</mxfile>
